<?xml version="1.0" encoding="iso-8859-1"?>
<!-- Generator: Adobe Illustrator 19.0.0, SVG Export Plug-In . SVG Version: 6.00 Build 0)  -->
<svg version="1.1" id="Layer_1" xmlns="http://www.w3.org/2000/svg" xmlns:xlink="http://www.w3.org/1999/xlink" x="0px" y="0px"
	 viewBox="0 0 511.998 511.998" style="enable-background:new 0 0 511.998 511.998;" xml:space="preserve">
<g>
	<g>
		<path d="M198.945,21.496c-33.418,0-61.02,25.331-64.643,57.798c-12.237,1.996-21.607,12.637-21.607,25.428
			c0,3.115,0.557,6.104,1.573,8.87H73.132c-14.209,0-25.77,11.56-25.77,25.77c0,14.208,11.561,25.768,25.77,25.768h99.971
			c9.811,0,18.357-5.512,22.709-13.601c1.044,0.051,2.09,0.084,3.133,0.084c35.867,0,65.048-29.186,65.048-65.059
			S234.813,21.496,198.945,21.496z M173.103,113.592c-4.666,0-8.449,3.783-8.449,8.449s3.783,8.449,8.449,8.449
			c4.892,0,8.872,3.98,8.872,8.872s-3.98,8.871-8.872,8.871H73.132c-4.892,0-8.872-3.979-8.872-8.871
			c0-4.893,3.98-8.872,8.872-8.872h65.33c4.666,0,8.449-3.783,8.449-8.449s-3.783-8.449-8.449-8.449
			c-4.892,0-8.871-3.979-8.871-8.87c0-4.892,3.979-8.871,8.871-8.871h59.711c4.892,0,8.872,3.979,8.872,8.871
			c0,4.891-3.98,8.87-8.872,8.87H173.103z M198.944,134.715c-0.166,0-0.331-0.008-0.498-0.01c-0.266-1.45-0.65-2.859-1.148-4.214
			h0.875c14.209,0,25.77-11.56,25.77-25.769s-11.561-25.769-25.77-25.769H151.39c3.656-22.956,23.586-40.558,47.554-40.558
			c26.55,0,48.149,21.605,48.149,48.16C247.093,113.11,225.494,134.715,198.944,134.715z"/>
	</g>
</g>
<g>
	<g>
		<path d="M478.806,180.208c0.31-1.441,0.472-2.935,0.472-4.467c0-11.715-9.531-21.247-21.246-21.247h-73.866
			c-11.715,0-21.247,9.531-21.247,21.247c0,11.716,9.531,21.247,21.247,21.247h27.472c-0.293,1.404-0.447,2.858-0.447,4.347
			c0,11.715,9.531,21.247,21.246,21.247h44.119c11.715,0,21.247-9.531,21.247-21.247
			C497.803,190.38,489.468,181.336,478.806,180.208z M476.556,205.685h-44.119c-2.397,0-4.347-1.95-4.347-4.349
			c0-2.397,1.95-4.347,4.347-4.347c4.666,0,8.449-3.783,8.449-8.449c0-4.666-3.783-8.449-8.449-8.449h-48.271
			c-2.397,0-4.349-1.95-4.349-4.349s1.95-4.349,4.349-4.349h73.866c2.397,0,4.347,1.95,4.347,4.349s-1.95,4.349-4.347,4.349
			c-4.666,0-8.449,3.783-8.449,8.449c0,4.666,3.783,8.449,8.449,8.449h18.524c2.397,0,4.349,1.95,4.349,4.347
			S478.955,205.685,476.556,205.685z"/>
	</g>
</g>
<g>
	<g>
		<path d="M503.548,441.498h-290.02c-11.952-14.981-25.714-28.343-41.03-39.857c20.608-20.456,44.441-36.791,70.988-48.601
			c30.503-13.567,63.039-20.447,96.702-20.447c58.196,0,114.224,21.215,157.763,59.738c3.496,3.092,8.835,2.766,11.927-0.729
			c3.092-3.495,2.766-8.834-0.729-11.927c-41.587-36.795-93.813-58.831-148.832-63.172v-21.641
			c15.439-2.365,23.278-11.69,23.278-27.86c0-9.86-2.917-23.47-7.431-34.673c-8.019-19.905-17.639-24.084-24.297-24.084
			c-6.658,0-16.278,4.178-24.297,24.084c-4.513,11.204-7.43,24.814-7.43,34.673c0,16.169,7.839,25.495,23.278,27.86v20.87
			c-1.077-0.013-2.152-0.037-3.23-0.037c-25.647,0-50.682,3.751-74.765,11.141c-20.369-5.145-41.441-7.761-62.675-7.761
			c-48.326,0-95.237,13.547-135.897,39.195c-9.997-1.337-20.13-2.019-30.351-2.019c-9.717,0-19.514,0.622-29.12,1.848
			c-4.629,0.59-7.903,4.822-7.311,9.451c0.59,4.629,4.825,7.91,9.451,7.311c8.9-1.136,17.978-1.711,26.982-1.711
			c42.516,0,83.435,12.655,118.334,36.597c13.388,9.177,25.593,19.825,36.47,31.751H8.45c-4.666,0-8.449,3.783-8.449,8.449
			c0,4.666,3.783,8.449,8.449,8.449h495.098c4.666,0,8.449-3.783,8.449-8.449C511.997,445.281,508.214,441.498,503.548,441.498z
			 M337.037,267.004c0-7.168,2.246-17.93,5.589-26.779c4.123-10.912,8.07-14.454,9.239-15.026c1.17,0.572,5.117,4.114,9.239,15.026
			c3.344,8.849,5.59,19.611,5.59,26.779c0,9.91-3.703,11.584-14.829,11.584C340.74,278.588,337.037,276.914,337.037,267.004z
			 M92.179,363.148c33.962-17.831,71.776-27.174,110.567-27.174c10.932,0,21.812,0.762,32.563,2.229
			c-28.851,13.026-54.693,31.045-76.918,53.641C137.863,378.694,115.55,369.052,92.179,363.148z"/>
	</g>
</g>
<g>
	<g>
		<path d="M503.548,473.604H8.45c-4.666,0-8.449,3.783-8.449,8.449s3.783,8.449,8.449,8.449h495.098
			c4.666,0,8.449-3.783,8.449-8.449S508.214,473.604,503.548,473.604z"/>
	</g>
</g>
<g>
</g>
<g>
</g>
<g>
</g>
<g>
</g>
<g>
</g>
<g>
</g>
<g>
</g>
<g>
</g>
<g>
</g>
<g>
</g>
<g>
</g>
<g>
</g>
<g>
</g>
<g>
</g>
<g>
</g>
</svg>
