<?xml version="1.0" encoding="iso-8859-1"?>
<!-- Generator: Adobe Illustrator 19.0.0, SVG Export Plug-In . SVG Version: 6.00 Build 0)  -->
<svg version="1.1" id="Layer_1" xmlns="http://www.w3.org/2000/svg" xmlns:xlink="http://www.w3.org/1999/xlink" x="0px" y="0px"
	 viewBox="0 0 512.001 512.001" style="enable-background:new 0 0 512.001 512.001;" xml:space="preserve">
<g>
	<path style="fill:#1D1D1B;" d="M338.719,41.272L173.281,16.456L0,42.449v454.272l173.281-25.992l165.438,24.815l173.282-25.992
		V15.28L338.719,41.272z M496.312,456.043l-157.594,23.639L173.28,454.866L15.688,478.505V55.959l157.593-23.64l165.438,24.816
		l157.594-23.64v422.546H496.312z"/>
	<polygon style="fill:#1D1D1B;" points="103.567,179.832 114.66,168.739 102.659,156.738 114.66,144.738 103.567,133.644 
		91.567,145.646 79.565,133.644 68.473,144.738 80.473,156.738 68.473,168.739 79.565,179.832 91.567,167.831 	"/>
	<polygon style="fill:#1D1D1B;" points="266.997,331.166 254.995,343.167 242.995,331.166 231.903,342.259 243.903,354.26 
		231.903,366.26 242.995,377.354 254.995,365.352 266.997,377.354 278.09,366.26 266.089,354.26 278.09,342.259 	"/>
	<polygon style="fill:#1D1D1B;" points="410.44,215.36 399.346,226.452 411.347,238.453 399.346,250.455 410.44,261.547 
		422.44,249.547 434.441,261.547 445.535,250.455 433.534,238.453 445.535,226.452 434.441,215.36 422.44,227.36 	"/>
	<polygon style="fill:#1D1D1B;" points="248.155,410.896 181.125,390.787 181.125,40.933 165.437,40.933 165.437,390.787 
		98.406,410.896 98.406,189.826 82.718,189.826 82.718,431.98 165.437,407.165 165.437,446.254 181.125,446.254 181.125,407.165 
		263.845,431.98 263.845,388.351 248.155,388.351 	"/>
	<polygon style="fill:#1D1D1B;" points="330.875,65.748 330.875,171.012 248.155,146.196 248.155,322.176 263.845,322.176 
		263.845,167.28 330.875,187.39 330.875,471.07 346.563,471.07 346.563,187.39 413.594,167.28 413.594,214.641 429.281,214.641 
		429.281,146.196 346.563,171.012 346.563,65.748 	"/>
</g>
<g>
</g>
<g>
</g>
<g>
</g>
<g>
</g>
<g>
</g>
<g>
</g>
<g>
</g>
<g>
</g>
<g>
</g>
<g>
</g>
<g>
</g>
<g>
</g>
<g>
</g>
<g>
</g>
<g>
</g>
</svg>
