<?xml version="1.0" encoding="iso-8859-1"?>
<!-- Generator: Adobe Illustrator 19.0.0, SVG Export Plug-In . SVG Version: 6.00 Build 0)  -->
<svg version="1.1" id="Capa_1" xmlns="http://www.w3.org/2000/svg" xmlns:xlink="http://www.w3.org/1999/xlink" x="0px" y="0px"
	 viewBox="0 0 490 490" style="enable-background:new 0 0 490 490;" xml:space="preserve">
<path d="M485.296,424.632l-58.598-130.669c-1.689-3.769-5.438-6.196-9.571-6.196h-17.935c5.023-7.387,7.98-16.285,7.98-25.873
	v-51.588c0-25.466-20.719-46.185-46.185-46.185h-31.484V41.469c0-2.858-1.167-5.592-3.231-7.574L290.908,0l-14.513,15.147
	l32.133,30.797v118.177H178.08V92.421h37.623V71.446H3.786v20.975h37.623v195.345H24.402c-5.791,0-10.488,4.696-10.488,10.487
	v130.67c0,5.791,4.697,10.487,10.488,10.487h13.623C43.995,468.224,70.394,490,101.973,490s57.983-21.776,63.954-50.589h11.815
	c5.97,28.813,32.37,50.589,63.949,50.589s57.983-21.776,63.953-50.589h11.816C323.431,468.224,349.835,490,381.414,490
	c31.579,0,57.979-21.776,63.949-50.589h30.362c3.554,0,6.873-1.803,8.803-4.788C486.463,431.638,486.751,427.879,485.296,424.632z
	 M360.987,185.096c13.904,0,25.21,11.307,25.21,25.21v51.588c0,13.903-11.306,25.21-25.21,25.21H178.08V185.096H360.987z
	 M62.384,92.421h94.721v195.345H62.384V92.421z M101.973,469.025c-24.396,0-44.244-18.835-44.244-41.98
	c0-23.151,19.848-41.986,44.244-41.986c24.401,0,44.25,18.835,44.25,41.986C146.223,450.19,126.375,469.025,101.973,469.025z
	 M241.691,469.025c-24.396,0-44.245-18.835-44.245-41.98c0-23.151,19.849-41.986,44.245-41.986c24.4,0,44.249,18.835,44.249,41.986
	C285.94,450.19,266.092,469.025,241.691,469.025z M381.414,469.025c-24.4,0-44.249-18.835-44.249-41.98
	c0-23.151,19.849-41.986,44.249-41.986c24.396,0,44.245,18.835,44.245,41.986C425.659,450.19,405.81,469.025,381.414,469.025z
	 M446.008,418.436c-4.363-30.655-31.657-54.353-64.594-54.353c-32.938,0-60.235,23.697-64.599,54.353H306.29
	c-4.364-30.655-31.661-54.353-64.599-54.353c-32.938,0-60.231,23.697-64.595,54.353h-10.523
	c-4.364-30.655-31.662-54.353-64.6-54.353s-60.231,23.697-64.594,54.353h-2.49V308.742h375.447l49.192,109.694H446.008z"/>
<rect x="296.428" y="191.167" width="33.68" height="20.975"/>
<rect x="94.277" y="114.584" width="20.975" height="75.512"/>
<g>
</g>
<g>
</g>
<g>
</g>
<g>
</g>
<g>
</g>
<g>
</g>
<g>
</g>
<g>
</g>
<g>
</g>
<g>
</g>
<g>
</g>
<g>
</g>
<g>
</g>
<g>
</g>
<g>
</g>
</svg>
