<?xml version="1.0" encoding="UTF-8" standalone="no"?>
<!-- Generator: Adobe Illustrator 19.0.0, SVG Export Plug-In . SVG Version: 6.00 Build 0)  -->

<svg
   version="1.1"
   id="Layer_1"
   x="0px"
   y="0px"
   viewBox="0 0 1700 512"
   xml:space="preserve"
   sodipodi:docname="amerique_du_sud.svg"
   width="1700"
   height="512"
   inkscape:version="1.1.1 (3bf5ae0d25, 2021-09-20)"
   xmlns:inkscape="http://www.inkscape.org/namespaces/inkscape"
   xmlns:sodipodi="http://sodipodi.sourceforge.net/DTD/sodipodi-0.dtd"
   xmlns="http://www.w3.org/2000/svg"
   xmlns:svg="http://www.w3.org/2000/svg"><defs
   id="defs161" /><sodipodi:namedview
   id="namedview159"
   pagecolor="#ffffff"
   bordercolor="#666666"
   borderopacity="1.0"
   inkscape:pageshadow="2"
   inkscape:pageopacity="0.0"
   inkscape:pagecheckerboard="0"
   showgrid="false"
   inkscape:zoom="0.40625"
   inkscape:cx="807.38461"
   inkscape:cy="375.38461"
   inkscape:window-width="1920"
   inkscape:window-height="1017"
   inkscape:window-x="-8"
   inkscape:window-y="-8"
   inkscape:window-maximized="1"
   inkscape:current-layer="Layer_1" />
<g
   id="g1113"
   transform="translate(-34.461538,113.23077)"><g
     id="g880"
     transform="translate(595.69231,-83.69231)"><path
       style="fill:#ff4b55"
       d="M 473.655,88.276 H 38.345 C 17.167,88.276 0,105.443 0,126.621 v 73.471 h 512 v -73.471 c 0,-21.178 -17.167,-38.345 -38.345,-38.345 z"
       id="path2-1" /><path
       style="fill:#41479b"
       d="m 0,385.379 c 0,21.177 17.167,38.345 38.345,38.345 h 435.31 c 21.177,0 38.345,-17.167 38.345,-38.345 V 311.908 H 0 Z"
       id="path4-5" /><rect
       y="200.09"
       style="fill:#f5f5f5"
       width="512"
       height="111.81"
       id="rect6-0"
       x="0" /><path
       style="fill:#ff4b55"
       d="m 256,211.862 c -24.376,0 -44.138,19.761 -44.138,44.138 0,24.377 19.762,44.138 44.138,44.138 24.376,0 44.138,-19.761 44.138,-44.138 0,-24.377 -19.762,-44.138 -44.138,-44.138 z m 0,77.426 c -18.385,0 -33.288,-14.903 -33.288,-33.288 0,-18.383 14.903,-33.288 33.288,-33.288 18.385,0 33.288,14.903 33.288,33.288 0,18.383 -14.903,33.288 -33.288,33.288 z"
       id="path8-9" /><circle
       style="fill:#41479b"
       cx="256"
       cy="256"
       r="15.31"
       id="circle10" /><path
       style="fill:#ffe15a"
       d="m 256.998,244.403 2.467,7.4 7.799,0.061 c 1.01,0.008 1.429,1.297 0.616,1.897 l -6.274,4.633 2.353,7.436 c 0.305,0.962 -0.791,1.759 -1.613,1.172 l -6.346,-4.535 -6.346,4.535 c -0.821,0.587 -1.918,-0.21 -1.613,-1.172 l 2.353,-7.436 -6.274,-4.633 c -0.812,-0.6 -0.394,-1.889 0.616,-1.897 l 7.799,-0.061 2.467,-7.4 c 0.32,-0.958 1.676,-0.958 1.996,0 z"
       id="path12-1" /><path
       style="fill:#64c86e"
       d="m 284.96,256.356 c 0,0 0.875,-4.046 -3.43,0.809 0,0 0.063,-1.382 -0.059,-2.521 0.946,-1.025 2.121,-3.266 1.845,-8.052 0,0 -0.675,-4.084 -2.891,2.014 0,0 -0.605,-1.799 -1.248,-2.795 0.534,-1.107 0.946,-3.125 -0.334,-6.947 0,0 -1.497,-3.268 -1.963,2.348 0,0 -1.229,-1.838 -2.027,-2.29 0.154,-0.906 0.033,-2.462 -1.775,-4.981 0,0 -1.804,-2.02 -0.893,2.126 0,0 -1.651,-1.337 -2.179,-1.18 -0.274,-0.792 -1.067,-2.131 -3.73,-3.893 0,0 -2.307,-1.263 0.34,2.034 0,0 -2.339,-0.928 -2.312,-0.396 0.028,0.532 1.159,1.513 2.088,1.951 0,0 -3.431,0.356 -2.023,1.121 0,0 3.481,1.201 5.574,0.045 0.168,0.609 0.509,1.292 1.015,1.783 0,0 -4.084,-0.792 -2.978,0.433 0,0 3.063,2.251 6.09,1.906 -0.014,0.834 0.238,1.911 0.681,2.718 0,0 -4.87,-2.603 -3.947,-0.616 0,0 2.912,3.895 6.786,4.74 -0.159,0.866 -0.156,1.913 0.054,2.78 0,0 -4.622,-4.365 -4.199,-1.878 0,0 1.932,5.122 5.848,7.298 -0.319,0.65 -0.58,1.377 -0.676,2.056 0,0 -2.692,-5.761 -3.213,-3.292 0,0 -0.089,5.754 2.983,9.195 -0.654,0.544 -1.295,1.305 -1.688,2.052 0,0 -0.589,-6.329 -1.913,-4.182 0,0 -1.829,4.796 -0.591,8.929 -0.819,0.242 -1.711,0.689 -2.371,1.224 0,0 1.953,-6.051 -0.11,-4.599 0,0 -3.674,3.975 -3.955,8.447 -0.974,-0.02 -2.293,0.331 -3.249,0.902 0,0 2.795,-5.709 0.545,-4.567 0,0 -4.008,3.274 -5.043,7.523 -0.948,0.541 -2.558,1.46 -4.167,2.372 -0.936,-0.543 -1.845,-1.071 -2.622,-1.525 l 0.026,-0.042 -9.111,-7.638 0.181,2.498 -4.575,-8.182 -0.565,2.784 -1.498,-9.045 -1.329,1.335 0.514,-8.438 -1.732,0.934 3.146,-6.276 -1.478,0.417 3.886,-3.726 -2.055,0.175 4.914,-2.231 -1.796,-0.276 4.798,-2.429 -2.067,-0.1 6.219,-2.152 -1.139,-0.996 5.383,-1.588 -6.45,-0.492 1.837,-2.261 -4.921,2.518 0.706,-3.404 -4.305,4.433 0.748,-3.104 -4.029,4.009 0.26,-3.026 -3.983,6.746 -0.514,-3.019 -3.31,7.574 -0.911,-3.3 -1.478,9.393 -1.233,-1.397 1.621,9.06 -2.056,-1.542 3.769,8.138 c 0,0 -2.741,-1.199 -3.084,-1.199 -0.343,0 6.553,7.004 6.553,7.004 l -3.598,-0.385 6.952,4.888 -2.583,0.638 5.783,2.248 -1.414,1.092 11.972,0.856 c 0,0 1.154,0.961 2.724,2.074 -0.829,0.467 -1.558,0.875 -2.009,1.122 -0.456,0.248 -0.989,0.273 -1.468,0.073 -1.137,-0.476 -2.781,-1.149 -3.574,-1.466 0,0 0.077,3.403 3.62,3.488 1.455,0.033 3.439,-0.893 5.284,-1.988 1.889,1.178 3.974,2.217 5.48,2.182 3.466,-0.085 3.542,-3.488 3.542,-3.488 -0.776,0.318 -2.386,0.99 -3.497,1.466 -0.469,0.2 -0.991,0.174 -1.436,-0.073 -0.491,-0.275 -1.299,-0.736 -2.225,-1.271 0.946,-0.641 1.739,-1.223 2.296,-1.652 0.872,0.685 3.368,1.889 8.946,-0.205 0,0 3.7,-1.858 -2.781,-2.163 0,0 1.203,-0.883 2.015,-1.721 1.063,0.547 3.69,1.195 8.684,-1.547 0,0 3.397,-2.367 -3.06,-1.745 0,0 0.862,-0.84 1.54,-1.695 1.114,0.125 3.865,-0.172 7.513,-4.839 0,0 2.19,-3.513 -3.5,-0.397 0,0 0.736,-1.754 0.909,-2.927 1.259,-0.608 3.176,-2.261 4.68,-6.812 z"
       id="path14-3" /></g></g>












































<g
   id="g1103"
   transform="translate(0,29.538462)"><path
     style="fill:#73af00"
     d="m 38.345,423.724 h 435.31 c 21.177,0 38.345,-17.167 38.345,-38.345 V 311.908 H 0 v 73.471 c 0,21.178 17.167,38.345 38.345,38.345 z"
     id="path2" /><path
     style="fill:#ff4b55"
     d="M 512,126.621 C 512,105.444 494.833,88.276 473.655,88.276 H 38.345 C 17.167,88.276 0,105.443 0,126.621 v 73.471 h 512 z"
     id="path4" /><rect
     y="200.09"
     style="fill:#ffe15a"
     width="512"
     height="111.81"
     id="rect6"
     x="0" /><path
     style="fill:#73af00"
     d="m 244.598,205.956 c 0,0 -0.227,0.284 -0.653,0.817 -0.355,0.492 -0.888,1.248 -1.47,2.254 -1.145,1.999 -2.347,5.098 -2.38,8.792 -0.012,1.801 0.36,3.988 0.974,5.727 0.666,1.92 1.771,3.756 3.168,5.396 1.399,1.655 3.268,2.931 5.267,3.873 0.991,0.503 2.079,0.792 3.158,1.058 0.535,0.163 1.105,0.171 1.654,0.279 0.276,0.052 0.562,0.029 0.841,0.051 l 0.422,0.019 0.211,0.011 0.105,0.006 0.053,0.003 0.026,0.001 c -0.085,0.003 0.227,-0.004 -0.184,0.007 0.684,-0.04 1.514,-0.045 2.078,-0.114 0.492,-0.115 0.906,-0.095 1.47,-0.262 1.08,-0.266 2.167,-0.555 3.158,-1.058 1.998,-0.942 3.868,-2.218 5.267,-3.873 1.397,-1.64 2.502,-3.476 3.168,-5.396 0.638,-1.953 0.979,-3.822 0.974,-5.736 -0.031,-3.678 -1.234,-6.788 -2.379,-8.785 -0.578,-1.002 -1.113,-1.763 -1.494,-2.276 -0.396,-0.505 -0.607,-0.776 -0.607,-0.776 l -0.053,-0.067 c -0.381,-0.486 -0.295,-1.187 0.191,-1.568 0.384,-0.3 0.904,-0.309 1.291,-0.061 0,0 0.326,0.209 0.937,0.6 0.578,0.434 1.474,1.047 2.439,2.039 1.937,1.918 4.451,5.334 5.358,10.298 0.449,2.376 0.498,5.25 -0.121,8.075 -0.6,2.854 -1.817,5.805 -3.782,8.387 -1.93,2.594 -4.523,4.888 -7.606,6.435 -1.521,0.811 -3.176,1.4 -4.874,1.81 -0.814,0.239 -1.847,0.338 -2.767,0.483 -0.862,0.095 -1.475,0.097 -2.226,0.15 l -0.292,0.001 -0.082,-0.004 -0.164,-0.008 -0.328,-0.017 -0.657,-0.035 c -0.437,-0.035 -0.876,-0.029 -1.309,-0.104 -0.863,-0.152 -1.741,-0.223 -2.583,-0.466 -1.698,-0.409 -3.354,-0.999 -4.874,-1.81 -3.083,-1.547 -5.676,-3.842 -7.606,-6.435 -1.964,-2.583 -3.181,-5.534 -3.782,-8.387 -0.642,-3.04 -0.562,-5.596 -0.12,-8.084 0.905,-4.949 3.421,-8.377 5.357,-10.291 0.961,-0.988 1.86,-1.607 2.463,-2.061 0.58,-0.364 0.891,-0.559 0.891,-0.559 0.526,-0.33 1.22,-0.172 1.55,0.354 0.26,0.418 0.212,0.943 -0.078,1.307 z"
     id="path8" /><path
     style="fill:#ff4b55"
     d="m 253.782,293.866 v 13.971 c 0,1.394 -1.685,2.092 -2.67,1.107 l -0.769,-0.769 c -0.639,-0.639 -0.998,-1.505 -0.998,-2.408 v -11.901 z"
     id="path10" /><path
     style="fill:#ffe15a"
     d="m 247.126,291.647 v 10.141 c 0,0.609 0.242,1.194 0.673,1.625 l 1.545,1.545 v -13.311 z"
     id="path12" /><path
     style="fill:#73af00"
     d="m 244.908,291.647 v 5.442 c 0,0.777 0.309,1.522 0.857,2.071 l 1.361,1.361 v -8.874 z"
     id="path14" /><path
     style="fill:#ff4b55"
     d="m 258.219,293.866 v 13.971 c 0,1.394 1.685,2.092 2.67,1.107 l 0.769,-0.769 c 0.639,-0.639 0.998,-1.505 0.998,-2.408 v -11.901 z"
     id="path16" /><path
     style="fill:#ffe15a"
     d="m 264.874,291.647 v 10.141 c 0,0.609 -0.242,1.194 -0.673,1.625 l -1.545,1.545 v -13.311 z"
     id="path18" /><path
     style="fill:#73af00"
     d="m 267.093,291.647 v 5.442 c 0,0.777 -0.309,1.522 -0.857,2.071 l -1.361,1.361 v -8.874 z"
     id="path20" /><path
     style="fill:#ff4b55"
     d="m 267.093,251.715 24.403,-17.748 v 36.498 c 0,10.474 -8.491,18.964 -18.964,18.964 v 0 c -3.554,0 -7.037,-0.999 -10.051,-2.882 l -13.135,-8.21 v -26.93 z"
     id="path22" /><path
     style="fill:#ffe15a"
     d="m 282.622,240.42 v 25.607 c 0,10.474 -8.491,18.964 -18.964,18.964 -1.575,0 -3.127,-0.227 -4.64,-0.61 l -9.673,-6.046 v -26.93 l 17.748,0.308 z"
     id="path24" /><path
     style="fill:#73af00"
     d="m 275.967,245.261 v 16.531 c 0,10.474 -8.491,18.964 -18.964,18.964 -1.575,0 -3.128,-0.227 -4.64,-0.61 l -3.018,-1.886 v -26.854 l 17.748,0.308 z"
     id="path26" /><polygon
     style="fill:#f5f5f5"
     points="302.589,225.094 295.489,233.967 291.496,233.967 292.826,229.974 "
     id="polygon28" /><path
     style="fill:#ff4b55"
     d="m 280.404,262.807 24.403,-17.748 v 36.498 c 0,10.474 -8.491,18.964 -18.964,18.964 v 0 c -3.554,0 -7.037,-0.999 -10.051,-2.882 l -13.135,-8.21 v -26.93 z"
     id="path30" /><path
     style="fill:#73af00"
     d="m 289.278,256.353 v 16.531 c 0,10.474 -8.491,18.964 -18.964,18.964 -1.575,0 -3.127,-0.227 -4.64,-0.61 l -3.018,-1.886 V 262.5 l 17.748,0.308 z"
     id="path32" /><polygon
     style="fill:#f5f5f5"
     points="315.9,236.185 308.8,245.059 304.807,245.059 306.137,241.066 "
     id="polygon34" /><path
     style="fill:#ff4b55"
     d="m 273.748,258.37 24.403,-17.748 v 36.498 c 0,10.474 -8.491,18.964 -18.964,18.964 v 0 c -3.554,0 -7.037,-0.999 -10.051,-2.882 L 256,284.992 v -26.93 z"
     id="path36" /><path
     style="fill:#ffe15a"
     d="m 289.278,247.076 v 25.607 c 0,10.474 -8.491,18.964 -18.964,18.964 -1.575,0 -3.127,-0.227 -4.64,-0.61 L 256,284.992 v -26.93 l 17.748,0.308 z"
     id="path38" /><path
     style="fill:#73af00"
     d="m 282.622,251.916 v 16.531 c 0,10.474 -8.491,18.964 -18.964,18.964 -1.575,0 -3.127,-0.227 -4.64,-0.61 L 256,284.916 v -26.854 l 17.748,0.308 z"
     id="path40" /><polygon
     style="fill:#f5f5f5"
     points="309.244,231.748 302.144,240.622 298.152,240.622 299.482,236.629 "
     id="polygon42" /><path
     style="fill:#ff4b55"
     d="m 244.908,251.715 -24.403,-17.748 v 36.498 c 0,10.474 8.491,18.964 18.964,18.964 v 0 c 3.554,0 7.037,-0.999 10.051,-2.882 l 13.135,-8.21 v -26.93 z"
     id="path44" /><path
     style="fill:#ffe15a"
     d="m 229.378,240.42 v 25.607 c 0,10.474 8.491,18.964 18.964,18.964 1.575,0 3.127,-0.227 4.64,-0.61 l 9.673,-6.046 v -26.93 l -17.748,0.308 z"
     id="path46" /><path
     style="fill:#73af00"
     d="m 236.034,245.261 v 16.531 c 0,10.474 8.491,18.964 18.964,18.964 1.575,0 3.128,-0.227 4.64,-0.61 l 3.018,-1.886 v -26.854 l -17.748,0.308 z"
     id="path48" /><polygon
     style="fill:#f5f5f5"
     points="209.412,225.094 216.512,233.967 220.504,233.967 219.174,229.974 "
     id="polygon50" /><path
     style="fill:#ff4b55"
     d="m 231.597,262.807 -24.403,-17.748 v 36.498 c 0,10.474 8.491,18.964 18.964,18.964 v 0 c 3.554,0 7.037,-0.999 10.051,-2.882 l 13.135,-8.21 v -26.93 z"
     id="path52" /><path
     style="fill:#73af00"
     d="m 222.723,256.353 v 16.531 c 0,10.474 8.491,18.964 18.964,18.964 1.575,0 3.127,-0.227 4.64,-0.61 l 3.018,-1.886 V 262.5 l -17.748,0.308 z"
     id="path54" /><polygon
     style="fill:#f5f5f5"
     points="196.102,236.185 203.201,245.059 207.193,245.059 205.863,241.066 "
     id="polygon56" /><path
     style="fill:#ff4b55"
     d="m 238.252,258.37 -24.403,-17.748 v 36.498 c 0,10.474 8.491,18.964 18.964,18.964 v 0 c 3.554,0 7.037,-0.999 10.051,-2.882 l 13.135,-8.21 v -26.93 z"
     id="path58" /><path
     style="fill:#ffe15a"
     d="m 222.723,247.076 v 25.607 c 0,10.474 8.491,18.964 18.964,18.964 1.575,0 3.127,-0.227 4.64,-0.61 L 256,284.991 v -26.93 l -17.748,0.308 z"
     id="path60" /><path
     style="fill:#73af00"
     d="m 229.378,251.916 v 16.531 c 0,10.474 8.491,18.964 18.964,18.964 1.575,0 3.127,-0.227 4.64,-0.61 L 256,284.915 v -26.854 l -17.748,0.308 z"
     id="path62" /><g
     id="g68">
	<path
   style="fill:#ffbe5a"
   d="m 226.947,291.354 -2.925,-2.925 c -1.773,-1.773 -1.726,-4.664 0.106,-6.378 l 48.417,-45.496 6.275,6.275 -45.496,48.417 c -1.712,1.833 -4.602,1.882 -6.377,0.107 z"
   id="path64" />
	<circle
   style="fill:#ffbe5a"
   cx="225.49001"
   cy="289.89001"
   r="2.2179999"
   id="circle66" />
</g><ellipse
     transform="matrix(-0.7071,-0.7071,0.7071,-0.7071,301.1345,604.1228)"
     style="fill:#f5f5f5"
     cx="275.685"
     cy="239.694"
     rx="4.4359999"
     ry="2.2179999"
     id="ellipse70" /><g
     id="g76">
	<path
   style="fill:#ffbe5a"
   d="m 285.053,291.354 2.925,-2.925 c 1.773,-1.773 1.726,-4.664 -0.106,-6.378 l -48.417,-45.496 -6.275,6.275 45.496,48.417 c 1.714,1.833 4.603,1.882 6.377,0.107 z"
   id="path72" />
	<circle
   style="fill:#ffbe5a"
   cx="286.51001"
   cy="289.89001"
   r="2.2179999"
   id="circle74" />
</g><ellipse
     transform="matrix(0.7071,-0.7071,0.7071,0.7071,-100.2755,237.3152)"
     style="fill:#f5f5f5"
     cx="236.327"
     cy="239.701"
     rx="4.4359999"
     ry="2.2179999"
     id="ellipse78" /><ellipse
     style="fill:#ffbe5a"
     cx="256"
     cy="266.14001"
     rx="19.615999"
     ry="23.294001"
     id="ellipse80" /><polygon
     style="fill:#ff4b55"
     points="259.021,262.082 259.428,266.701 257.042,262.726 256,267.244 254.959,262.726 252.573,266.701 252.979,262.082 249.481,265.126 251.294,260.857 247.027,262.671 250.07,259.174 245.451,259.58 249.427,257.193 244.908,256.152 249.427,255.111 245.451,252.724 250.07,253.13 247.027,249.632 251.294,251.446 249.481,247.178 252.979,250.221 252.573,245.602 254.959,249.578 256,245.059 257.042,249.578 259.428,245.602 259.021,250.221 262.52,247.178 260.706,251.446 264.974,249.632 261.93,253.13 266.55,252.724 262.573,255.111 267.093,256.152 262.573,257.193 266.55,259.58 261.93,259.174 264.974,262.671 260.706,260.857 262.52,265.126 "
     id="polygon82" /><path
     style="fill:#73af00"
     d="m 280.542,265.719 c 0,0 -7.349,1.941 -12.132,-2.08 -5.316,-4.469 -9.302,-6.579 -11.01,-7.371 -0.585,-0.271 -1.239,-0.271 -1.825,-10e-4 -1.224,0.565 -3.476,1.736 -5.468,3.49 -2.912,2.566 -11.855,7.626 -13.657,7.626 v 11.029 l 14.073,12.196 16.639,-0.486 z"
     id="path84" /><path
     style="fill:#3cc8ff"
     d="m 256,294.975 c -14.068,0 -25.513,-12.938 -25.513,-28.84 0,-15.902 11.444,-28.84 25.513,-28.84 14.069,0 25.513,12.938 25.513,28.84 0,15.902 -11.445,28.84 -25.513,28.84 z m 0,-51.025 c -10.398,0 -18.857,9.953 -18.857,22.185 0,12.232 8.459,22.185 18.857,22.185 10.398,0 18.857,-9.953 18.857,-22.185 0,-12.232 -8.459,-22.185 -18.857,-22.185 z"
     id="path86" /><g
     id="g108">
	<path
   style="fill:#ffbe5a"
   d="m 252.178,288.946 0.489,1.465 1.545,0.012 c 0.2,10e-4 0.282,0.257 0.122,0.375 l -1.242,0.918 0.466,1.473 c 0.061,0.191 -0.157,0.349 -0.32,0.232 l -1.257,-0.898 -1.257,0.898 c -0.162,0.116 -0.38,-0.042 -0.32,-0.232 l 0.466,-1.473 -1.242,-0.918 c -0.161,-0.119 -0.078,-0.374 0.122,-0.375 l 1.545,-0.012 0.489,-1.465 c 0.063,-0.19 0.331,-0.19 0.394,0 z"
   id="path88" />
	<path
   style="fill:#ffbe5a"
   d="m 245.242,285.964 0.489,1.465 1.545,0.012 c 0.2,0.001 0.282,0.257 0.122,0.375 l -1.242,0.918 0.466,1.473 c 0.061,0.191 -0.157,0.349 -0.32,0.232 l -1.257,-0.898 -1.257,0.898 c -0.162,0.116 -0.38,-0.042 -0.32,-0.232 l 0.466,-1.473 -1.242,-0.918 c -0.161,-0.119 -0.078,-0.374 0.122,-0.375 l 1.545,-0.012 0.489,-1.465 c 0.063,-0.19 0.332,-0.19 0.394,0 z"
   id="path90" />
	<path
   style="fill:#ffbe5a"
   d="m 239.673,280.904 0.489,1.465 1.545,0.012 c 0.2,0.001 0.282,0.257 0.122,0.375 l -1.242,0.918 0.466,1.473 c 0.061,0.191 -0.157,0.349 -0.32,0.232 l -1.257,-0.898 -1.257,0.898 c -0.162,0.116 -0.38,-0.042 -0.32,-0.232 l 0.466,-1.473 -1.242,-0.918 c -0.161,-0.119 -0.078,-0.374 0.122,-0.375 l 1.545,-0.012 0.489,-1.465 c 0.063,-0.19 0.331,-0.19 0.394,0 z"
   id="path92" />
	<path
   style="fill:#ffbe5a"
   d="m 235.875,274.167 0.489,1.465 1.545,0.012 c 0.2,10e-4 0.282,0.257 0.122,0.375 l -1.242,0.918 0.466,1.473 c 0.061,0.191 -0.157,0.349 -0.32,0.232 l -1.257,-0.898 -1.257,0.898 c -0.162,0.116 -0.38,-0.042 -0.32,-0.232 l 0.466,-1.473 -1.242,-0.918 c -0.161,-0.119 -0.078,-0.374 0.122,-0.375 l 1.545,-0.012 0.489,-1.465 c 0.063,-0.19 0.331,-0.19 0.394,0 z"
   id="path94" />
	<path
   style="fill:#ffbe5a"
   d="m 234.199,266.333 0.489,1.465 1.545,0.012 c 0.2,10e-4 0.282,0.257 0.122,0.375 l -1.242,0.918 0.466,1.473 c 0.061,0.191 -0.157,0.349 -0.32,0.232 l -1.257,-0.898 -1.257,0.898 c -0.162,0.116 -0.38,-0.042 -0.32,-0.232 l 0.466,-1.473 -1.242,-0.918 c -0.161,-0.119 -0.078,-0.374 0.122,-0.375 l 1.545,-0.012 0.489,-1.465 c 0.062,-0.19 0.331,-0.19 0.394,0 z"
   id="path96" />
	<path
   style="fill:#ffbe5a"
   d="m 259.812,288.946 -0.489,1.465 -1.545,0.012 c -0.2,10e-4 -0.282,0.257 -0.122,0.375 l 1.242,0.918 -0.466,1.473 c -0.061,0.191 0.157,0.349 0.32,0.232 l 1.257,-0.898 1.257,0.898 c 0.162,0.116 0.38,-0.042 0.32,-0.232 l -0.466,-1.473 1.242,-0.918 c 0.161,-0.119 0.078,-0.374 -0.122,-0.375 l -1.545,-0.012 -0.489,-1.465 c -0.063,-0.19 -0.331,-0.19 -0.394,0 z"
   id="path98" />
	<path
   style="fill:#ffbe5a"
   d="m 266.748,285.964 -0.489,1.465 -1.545,0.012 c -0.2,0.001 -0.283,0.257 -0.122,0.375 l 1.242,0.918 -0.466,1.473 c -0.061,0.191 0.157,0.349 0.32,0.232 l 1.257,-0.898 1.257,0.898 c 0.162,0.116 0.38,-0.042 0.32,-0.232 l -0.466,-1.473 1.242,-0.918 c 0.161,-0.119 0.078,-0.374 -0.122,-0.375 l -1.545,-0.012 -0.489,-1.465 c -0.063,-0.19 -0.332,-0.19 -0.394,0 z"
   id="path100" />
	<path
   style="fill:#ffbe5a"
   d="m 272.317,280.904 -0.489,1.465 -1.545,0.012 c -0.2,0.001 -0.282,0.257 -0.122,0.375 l 1.242,0.918 -0.466,1.473 c -0.061,0.191 0.157,0.349 0.32,0.232 l 1.257,-0.898 1.257,0.898 c 0.162,0.116 0.38,-0.042 0.32,-0.232 l -0.466,-1.473 1.242,-0.918 c 0.161,-0.119 0.078,-0.374 -0.122,-0.375 l -1.545,-0.012 -0.489,-1.465 c -0.062,-0.19 -0.331,-0.19 -0.394,0 z"
   id="path102" />
	<path
   style="fill:#ffbe5a"
   d="m 276.115,274.167 -0.489,1.465 -1.545,0.012 c -0.2,10e-4 -0.282,0.257 -0.122,0.375 l 1.242,0.918 -0.466,1.473 c -0.061,0.191 0.157,0.349 0.32,0.232 l 1.257,-0.898 1.257,0.898 c 0.162,0.116 0.38,-0.042 0.32,-0.232 l -0.466,-1.473 1.242,-0.918 c 0.161,-0.119 0.078,-0.374 -0.122,-0.375 l -1.545,-0.012 -0.489,-1.465 c -0.063,-0.19 -0.331,-0.19 -0.394,0 z"
   id="path104" />
	<path
   style="fill:#ffbe5a"
   d="m 277.791,266.333 -0.489,1.465 -1.545,0.012 c -0.2,10e-4 -0.283,0.257 -0.122,0.375 l 1.242,0.918 -0.466,1.473 c -0.061,0.191 0.157,0.349 0.32,0.232 l 1.257,-0.898 1.257,0.898 c 0.162,0.116 0.38,-0.042 0.32,-0.232 l -0.466,-1.473 1.242,-0.918 c 0.161,-0.119 0.078,-0.374 -0.122,-0.375 l -1.545,-0.012 -0.489,-1.465 c -0.062,-0.19 -0.33,-0.19 -0.394,0 z"
   id="path106" />
</g><path
     style="fill:#f5f5f5"
     d="m 246.361,280.358 0.737,3.526 h 0.318 v -2.406 c 0,0 0.524,1.678 1.266,2.406 h 0.6 c -0.287,-0.369 -0.803,-1.135 -0.803,-1.927 0,-1.091 0.868,-1.24 0.868,-2.407 h 0.744 v 4.333 h 0.435 l 0.806,-3.861 c 0,0 0.664,2.415 1.914,3.861 h 0.556 c -0.401,-0.589 -1.234,-2.109 -1.081,-4.407 0,0 1.191,-0.596 1.191,-2.208 v -2.294 c 0,-0.429 0.349,-0.778 0.778,-0.778 h 0.535 c 0,0 -0.796,-1.544 -1.647,-1.768 v -0.968 l -0.641,0.969 c -0.612,0.132 -0.973,0.698 -0.973,1.304 v 1.397 c 0,0.429 -0.348,0.778 -0.778,0.778 h -2.781 c -0.823,0 -2.142,0.823 -2.142,1.878 0,1.055 0.791,1.747 0.791,1.747 z"
     id="path110" /><path
     style="fill:#ffbe5a"
     d="m 258.819,276.843 h -0.255 c -2.016,0.11 -3.142,1.436 -3.142,1.436 l 2.045,2.045 v 3.848 h 2.447 v -3.848 l 2.045,-2.045 c 0.002,0 -1.124,-1.325 -3.14,-1.436 z"
     id="path112" /><g
     id="g120">
	<rect
   x="263.12"
   y="270.54999"
   style="fill:#f5f5f5"
   width="0.73900002"
   height="13.634"
   id="rect114" />
	<path
   style="fill:#f5f5f5"
   d="m 263.511,270.445 -3.987,4.819 c 0,0 -0.52,-2.323 1.803,-4.61 l -5.13,0.936 c 0,0 1.56,-2.912 5.65,-2.6 l -4.194,-3.501 c 0,0 3.605,-0.207 5.442,2.496 0,0 1.039,-3.119 3.951,-3.258 l -2.403,3.651 c 0,0 2.403,-1.225 5.731,-0.15 l -4.957,1.318 c 0,0 2.773,0.277 3.917,4.333 l -4.298,-2.946 c 0,0 1.318,1.56 0.832,4.61 z"
   id="path116" />
	<polygon
   style="fill:#f5f5f5"
   points="209.856,240.622 213.849,240.622 212.519,236.629 202.756,231.748 "
   id="polygon118" />
</g><path
     style="fill:#825546"
     d="m 262.941,230.978 26.337,-8.104 -13.981,-5.242 c -2.49,-0.935 -5.129,-1.412 -7.789,-1.412 h -2.633 c -1.225,0 -2.218,0.993 -2.218,2.218 v 2.218 H 256 249.345 v -2.218 c 0,-1.225 -0.993,-2.218 -2.218,-2.218 h -2.633 c -2.66,0 -5.299,0.479 -7.789,1.412 l -13.981,5.242 26.337,8.104 c 1.31,0.403 1.944,1.886 1.332,3.113 l -3.266,6.531 h 17.748 l -3.266,-6.531 c -0.614,-1.226 0.021,-2.71 1.332,-3.113 z"
     id="path122" /><circle
     style="fill:#f5f5f5"
     cx="256"
     cy="222.87"
     r="4.4359999"
     id="circle124" /><path
     style="fill:#ffbe5a"
     d="m 258.219,222.874 v 0 c 0,1.225 -0.993,2.218 -2.218,2.218 h -8.874 l 3.787,-3.787 c 0.416,-0.416 0.98,-0.65 1.569,-0.65 H 256 c 1.226,0.002 2.219,0.995 2.219,2.219 z"
     id="path126" /></g>
<g
   id="g128">
</g>
<g
   id="g130">
</g>
<g
   id="g132">
</g>
<g
   id="g134">
</g>
<g
   id="g136">
</g>
<g
   id="g138">
</g>
<g
   id="g140">
</g>
<g
   id="g142">
</g>
<g
   id="g144">
</g>
<g
   id="g146">
</g>
<g
   id="g148">
</g>
<g
   id="g150">
</g>
<g
   id="g152">
</g>
<g
   id="g154">
</g>
<g
   id="g156">
</g>
<g
   id="g877"
   transform="translate(1122.4615,29.538462)"><g
     id="g6"><path
       style="fill:#82afff"
       d="M 473.655,88.276 H 38.345 C 17.167,88.276 0,105.443 0,126.621 v 73.471 h 512 v -73.471 c 0,-21.178 -17.167,-38.345 -38.345,-38.345 z"
       id="path2-8" /><path
       style="fill:#82afff"
       d="m 0,385.379 c 0,21.177 17.167,38.345 38.345,38.345 h 435.31 c 21.177,0 38.345,-17.167 38.345,-38.345 V 311.908 H 0 Z"
       id="path4-9" /></g><rect
     y="200.09"
     style="fill:#f5f5f5"
     width="512"
     height="111.81"
     id="rect8"
     x="0" /><path
     style="fill:#f09146"
     d="m 300.138,253.793 h -31.784 c 0.593,-0.45 1.062,-0.893 1.486,-1.311 0.776,-0.759 1.393,-1.362 3.03,-2.035 1.646,-0.69 2.508,-0.698 3.599,-0.715 1.314,-0.009 2.802,-0.034 5.233,-1.035 2.427,-1.009 3.487,-2.044 4.423,-2.957 0.776,-0.759 1.393,-1.362 3.034,-2.044 1.633,-0.681 2.492,-0.69 3.577,-0.698 1.311,-0.018 2.797,-0.034 5.228,-1.043 l -1.698,-4.07 c -1.633,0.681 -2.492,0.69 -3.577,0.698 -1.311,0.018 -2.797,0.034 -5.224,1.035 -2.426,1.009 -3.487,2.044 -4.423,2.957 -0.776,0.759 -1.393,1.362 -3.03,2.035 -1.646,0.69 -2.508,0.698 -3.599,0.715 -1.314,0.009 -2.802,0.034 -5.233,1.043 -2.426,1 -3.487,2.044 -4.423,2.957 -0.764,0.743 -1.395,1.338 -2.967,2.002 l 24.98,-24.977 -3.121,-3.121 -22.485,22.482 c 0.099,-0.735 0.126,-1.389 0.132,-1.982 0.013,-1.095 0.022,-1.949 0.703,-3.595 0.681,-1.646 1.284,-2.259 2.044,-3.034 0.922,-0.94 1.961,-2.008 2.969,-4.439 1.004,-2.431 1.022,-3.914 1.035,-5.224 0.013,-1.086 0.022,-1.949 0.698,-3.586 0.681,-1.638 1.28,-2.25 2.039,-3.026 0.918,-0.94 1.956,-2.001 2.962,-4.423 l -4.077,-1.689 c -0.681,1.637 -1.28,2.25 -2.039,3.026 -0.918,0.94 -1.956,2.001 -2.962,4.423 -1.004,2.431 -1.022,3.914 -1.035,5.224 -0.013,1.086 -0.022,1.949 -0.698,3.586 -0.681,1.646 -1.284,2.259 -2.044,3.034 -0.922,0.94 -1.961,2.008 -2.969,4.439 -1.004,2.431 -1.022,3.923 -1.038,5.233 -0.009,1.063 -0.039,1.922 -0.676,3.5 v -35.317 h -4.414 v 31.783 c -0.45,-0.589 -0.892,-1.057 -1.306,-1.481 -0.762,-0.776 -1.362,-1.397 -2.044,-3.034 -0.681,-1.646 -0.694,-2.508 -0.707,-3.604 -0.013,-1.311 -0.03,-2.802 -1.038,-5.233 -1.004,-2.422 -2.044,-3.482 -2.962,-4.423 -0.759,-0.776 -1.357,-1.388 -2.039,-3.026 -0.676,-1.638 -0.685,-2.5 -0.698,-3.586 -0.013,-1.311 -0.03,-2.793 -1.035,-5.216 l -4.077,1.689 c 0.676,1.638 0.685,2.492 0.698,3.577 0.013,1.311 0.03,2.793 1.035,5.224 1.004,2.422 2.044,3.482 2.962,4.423 0.759,0.776 1.357,1.388 2.039,3.026 0.681,1.646 0.694,2.508 0.707,3.604 0.013,1.311 0.03,2.802 1.038,5.233 1.004,2.431 2.044,3.491 2.962,4.431 0.748,0.76 1.34,1.395 2.004,2.962 l -24.982,-24.979 -3.121,3.121 24.943,24.94 c -1.368,-0.621 -2.028,-1.192 -2.745,-1.888 -0.943,-0.922 -2.008,-1.965 -4.448,-2.974 -2.431,-1 -3.918,-1.026 -5.233,-1.043 -1.095,-0.009 -1.956,-0.025 -3.616,-0.715 -1.66,-0.681 -2.28,-1.284 -3.069,-2.051 -0.943,-0.914 -2.013,-1.956 -4.457,-2.974 -2.44,-1.009 -3.932,-1.026 -5.25,-1.043 -1.099,-0.018 -1.965,-0.034 -3.625,-0.724 l -1.689,4.086 c 2.44,1.009 3.932,1.026 5.25,1.043 1.099,0.018 1.965,0.034 3.625,0.724 1.664,0.681 2.284,1.284 3.073,2.051 0.943,0.922 2.013,1.956 4.452,2.966 2.44,1.017 3.932,1.035 5.246,1.052 1.095,0.018 1.956,0.025 3.608,0.715 1.651,0.681 2.268,1.284 3.048,2.044 0.401,0.394 0.849,0.809 1.391,1.233 H 211.86 v 4.414 h 35.254 c -1.393,0.53 -2.264,0.597 -3.262,0.612 -1.314,0.009 -2.802,0.034 -5.237,1.035 -2.435,1.009 -3.505,2.051 -4.448,2.966 -0.785,0.767 -1.401,1.37 -3.052,2.051 -1.66,0.69 -2.526,0.707 -3.625,0.724 -1.319,0.018 -2.81,0.034 -5.25,1.043 -2.444,1.017 -3.513,2.051 -4.457,2.974 -0.789,0.767 -1.409,1.37 -3.069,2.051 l 1.689,4.086 c 2.44,-1.017 3.509,-2.051 4.452,-2.974 0.789,-0.767 1.409,-1.37 3.073,-2.051 1.66,-0.69 2.526,-0.707 3.625,-0.724 1.319,-0.018 2.81,-0.034 5.255,-1.052 2.431,-1.009 3.496,-2.044 4.439,-2.966 0.78,-0.759 1.401,-1.362 3.057,-2.044 1.646,-0.69 2.513,-0.698 3.604,-0.715 0.558,-0.003 1.187,-0.04 1.868,-0.124 l -22.549,22.546 3.121,3.121 24.931,-24.927 c -0.614,1.362 -1.181,2.019 -1.879,2.738 -0.918,0.94 -1.956,2.008 -2.966,4.439 -1.009,2.431 -1.031,3.932 -1.043,5.241 -0.018,1.095 -0.025,1.956 -0.712,3.612 -0.685,1.664 -1.293,2.284 -2.056,3.069 -0.922,0.94 -1.961,2.017 -2.974,4.457 -1.013,2.44 -1.031,3.932 -1.047,5.25 -0.018,1.095 -0.03,1.965 -0.715,3.62 l 4.077,1.689 c 1.013,-2.44 1.031,-3.932 1.047,-5.25 0.018,-1.095 0.03,-1.965 0.715,-3.62 0.685,-1.664 1.293,-2.284 2.056,-3.069 0.922,-0.94 1.961,-2.017 2.974,-4.457 1.009,-2.431 1.031,-3.932 1.043,-5.241 0.018,-1.095 0.025,-1.956 0.712,-3.612 0.681,-1.655 1.284,-2.268 2.047,-3.052 0.392,-0.402 0.809,-0.85 1.233,-1.395 v 31.878 h 4.414 v -35.252 c 0.526,1.39 0.593,2.259 0.608,3.261 0.013,1.311 0.034,2.802 1.043,5.233 1.004,2.44 2.047,3.509 2.966,4.448 0.762,0.785 1.366,1.405 2.051,3.06 0.685,1.655 0.698,2.526 0.715,3.62 0.018,1.319 0.034,2.81 1.047,5.25 1.013,2.44 2.051,3.518 2.974,4.457 0.762,0.785 1.37,1.405 2.056,3.069 l 4.077,-1.689 c -1.013,-2.44 -2.051,-3.518 -2.974,-4.457 -0.762,-0.785 -1.371,-1.405 -2.056,-3.069 -0.685,-1.655 -0.698,-2.526 -0.715,-3.62 -0.018,-1.319 -0.034,-2.81 -1.047,-5.25 -1.009,-2.44 -2.047,-3.509 -2.966,-4.448 -0.762,-0.785 -1.366,-1.405 -2.051,-3.06 -0.685,-1.646 -0.694,-2.508 -0.712,-3.604 -0.006,-0.557 -0.042,-1.187 -0.126,-1.868 l 22.552,22.55 3.121,-3.121 -22.482,-22.478 c 0.73,0.097 1.384,0.126 1.973,0.134 1.09,0.009 1.949,0.018 3.595,0.698 1.646,0.69 2.263,1.284 3.043,2.051 0.94,0.914 2.004,1.956 4.436,2.966 2.426,1 3.914,1.017 5.224,1.026 1.086,0.018 1.944,0.025 3.582,0.707 1.638,0.672 2.25,1.276 3.026,2.035 0.94,0.914 2.001,1.956 4.427,2.966 l 1.689,-4.086 c -1.638,-0.672 -2.25,-1.276 -3.026,-2.035 -0.94,-0.914 -2.001,-1.956 -4.427,-2.966 -2.427,-1 -3.914,-1.017 -5.224,-1.026 -1.086,-0.018 -1.944,-0.025 -3.582,-0.707 -1.646,-0.681 -2.263,-1.276 -3.043,-2.044 -0.94,-0.914 -2.004,-1.956 -4.436,-2.957 -2.431,-1.017 -3.918,-1.035 -5.233,-1.043 -1.07,-0.018 -1.937,-0.038 -3.524,-0.681 h 35.349 v -4.414 z"
     id="path10-0" /><circle
     style="fill:#ffe15a"
     cx="256"
     cy="256"
     r="22.07"
     id="circle12" /></g></svg>
