<?xml version="1.0" encoding="UTF-8" standalone="no"?>
<!-- Generator: Adobe Illustrator 19.0.0, SVG Export Plug-In . SVG Version: 6.00 Build 0)  -->

<svg
   version="1.1"
   id="Layer_1"
   x="0px"
   y="0px"
   viewBox="0 0 1090 512"
   xml:space="preserve"
   sodipodi:docname="pays_nordique.svg"
   inkscape:version="1.1.1 (3bf5ae0d25, 2021-09-20)"
   width="1090"
   height="512"
   xmlns:inkscape="http://www.inkscape.org/namespaces/inkscape"
   xmlns:sodipodi="http://sodipodi.sourceforge.net/DTD/sodipodi-0.dtd"
   xmlns="http://www.w3.org/2000/svg"
   xmlns:svg="http://www.w3.org/2000/svg"><defs
   id="defs41" /><sodipodi:namedview
   id="namedview39"
   pagecolor="#ffffff"
   bordercolor="#666666"
   borderopacity="1.0"
   inkscape:pageshadow="2"
   inkscape:pageopacity="0.0"
   inkscape:pagecheckerboard="0"
   showgrid="false"
   inkscape:zoom="0.40625"
   inkscape:cx="91.076923"
   inkscape:cy="306.46154"
   inkscape:window-width="1920"
   inkscape:window-height="1017"
   inkscape:window-x="-8"
   inkscape:window-y="-8"
   inkscape:window-maximized="1"
   inkscape:current-layer="Layer_1" />



<g
   id="g8">
</g>
<g
   id="g10">
</g>
<g
   id="g12">
</g>
<g
   id="g14">
</g>
<g
   id="g16">
</g>
<g
   id="g18">
</g>
<g
   id="g20">
</g>
<g
   id="g22">
</g>
<g
   id="g24">
</g>
<g
   id="g26">
</g>
<g
   id="g28">
</g>
<g
   id="g30">
</g>
<g
   id="g32">
</g>
<g
   id="g34">
</g>
<g
   id="g36">
</g>
<g
   id="g881"><path
     style="fill:#ff4b55"
     d="M 473.655,427.4168 H 38.345 C 17.167,427.4168 0,410.2498 0,389.0718 V 130.3138 C 0,109.1368 17.167,91.968805 38.345,91.968805 h 435.31 c 21.177,0 38.345,17.166995 38.345,38.344995 v 258.759 c 0,21.177 -17.167,38.344 -38.345,38.344 z"
     id="path2" /><polygon
     style="fill:#f5f5f5"
     points="229.517,88.276 141.241,88.276 141.241,211.862 0,211.862 0,300.138 141.241,300.138 141.241,423.724 229.517,423.724 229.517,300.138 512,300.138 512,211.862 229.517,211.862 "
     id="polygon4"
     transform="translate(0,3.692805)" /><polygon
     style="fill:#41479b"
     points="211.862,88.276 158.897,88.276 158.897,229.517 0,229.517 0,282.483 158.897,282.483 158.897,423.724 211.862,423.724 211.862,282.483 512,282.483 512,229.517 211.862,229.517 "
     id="polygon6"
     transform="translate(0,3.692805)" /><path
     style="fill:#4173cd"
     d="M 1049.655,91.967807 H 614.345 C 593.167,91.967807 576,109.1348 576,130.3128 v 258.76 c 0,21.177 17.167,38.345 38.345,38.345 h 435.31 c 21.177,0 38.345,-17.167 38.345,-38.345 v -258.76 c 0,-21.178 -17.167,-38.344993 -38.345,-38.344993 z"
     id="path2-0" /><polygon
     style="fill:#ffe15a"
     points="211.862,423.724 211.862,282.482 512,282.482 512,229.516 211.862,229.516 211.862,88.275 158.897,88.275 158.897,229.516 0,229.516 0,282.482 158.897,282.482 158.897,423.724 "
     id="polygon4-7"
     transform="translate(576,3.693305)" /></g></svg>
