<?xml version="1.0" encoding="UTF-8" standalone="no"?>
<!-- Generator: Adobe Illustrator 19.0.0, SVG Export Plug-In . SVG Version: 6.00 Build 0)  -->

<svg
   version="1.1"
   id="Layer_1"
   x="0px"
   y="0px"
   viewBox="0 0 512.001 512.001"
   style="enable-background:new 0 0 512.001 512.001;"
   xml:space="preserve"
   sodipodi:docname="map-svgrepo-com-white.svg"
   inkscape:version="1.1.1 (3bf5ae0d25, 2021-09-20)"
   xmlns:inkscape="http://www.inkscape.org/namespaces/inkscape"
   xmlns:sodipodi="http://sodipodi.sourceforge.net/DTD/sodipodi-0.dtd"
   xmlns="http://www.w3.org/2000/svg"
   xmlns:svg="http://www.w3.org/2000/svg"><defs
   id="defs49" /><sodipodi:namedview
   id="namedview47"
   pagecolor="#ffffff"
   bordercolor="#666666"
   borderopacity="1.0"
   inkscape:pageshadow="2"
   inkscape:pageopacity="0.0"
   inkscape:pagecheckerboard="0"
   showgrid="false"
   inkscape:zoom="0.81249845"
   inkscape:cx="215.38503"
   inkscape:cy="335.38525"
   inkscape:window-width="1920"
   inkscape:window-height="1017"
   inkscape:window-x="-8"
   inkscape:window-y="-8"
   inkscape:window-maximized="1"
   inkscape:current-layer="Layer_1" />
<g
   id="g14"
   style="fill:#ffffff">
	<path
   style="fill:#ffffff"
   d="M 338.719,41.272 173.281,16.456 0,42.449 v 454.272 l 173.281,-25.992 165.438,24.815 173.282,-25.992 V 15.28 Z M 496.312,456.043 338.718,479.682 173.28,454.866 15.688,478.505 V 55.959 l 157.593,-23.64 165.438,24.816 157.594,-23.64 v 422.546 h -10e-4 z"
   id="path2" />
	<polygon
   style="fill:#ffffff"
   points="102.659,156.738 114.66,144.738 103.567,133.644 91.567,145.646 79.565,133.644 68.473,144.738 80.473,156.738 68.473,168.739 79.565,179.832 91.567,167.831 103.567,179.832 114.66,168.739 "
   id="polygon4" />
	<polygon
   style="fill:#ffffff"
   points="242.995,331.166 231.903,342.259 243.903,354.26 231.903,366.26 242.995,377.354 254.995,365.352 266.997,377.354 278.09,366.26 266.089,354.26 278.09,342.259 266.997,331.166 254.995,343.167 "
   id="polygon6" />
	<polygon
   style="fill:#ffffff"
   points="411.347,238.453 399.346,250.455 410.44,261.547 422.44,249.547 434.441,261.547 445.535,250.455 433.534,238.453 445.535,226.452 434.441,215.36 422.44,227.36 410.44,215.36 399.346,226.452 "
   id="polygon8" />
	<polygon
   style="fill:#ffffff"
   points="181.125,40.933 165.437,40.933 165.437,390.787 98.406,410.896 98.406,189.826 82.718,189.826 82.718,431.98 165.437,407.165 165.437,446.254 181.125,446.254 181.125,407.165 263.845,431.98 263.845,388.351 248.155,388.351 248.155,410.896 181.125,390.787 "
   id="polygon10" />
	<polygon
   style="fill:#ffffff"
   points="248.155,146.196 248.155,322.176 263.845,322.176 263.845,167.28 330.875,187.39 330.875,471.07 346.563,471.07 346.563,187.39 413.594,167.28 413.594,214.641 429.281,214.641 429.281,146.196 346.563,171.012 346.563,65.748 330.875,65.748 330.875,171.012 "
   id="polygon12" />
</g>
<g
   id="g16">
</g>
<g
   id="g18">
</g>
<g
   id="g20">
</g>
<g
   id="g22">
</g>
<g
   id="g24">
</g>
<g
   id="g26">
</g>
<g
   id="g28">
</g>
<g
   id="g30">
</g>
<g
   id="g32">
</g>
<g
   id="g34">
</g>
<g
   id="g36">
</g>
<g
   id="g38">
</g>
<g
   id="g40">
</g>
<g
   id="g42">
</g>
<g
   id="g44">
</g>
<rect
   style="fill:#ffffff;stroke:#ffffff;stroke-width:0;stroke-linecap:round;stroke-linejoin:round"
   id="rect913"
   width="188.30804"
   height="268.3082"
   x="-270.76974"
   y="-67.692436" /></svg>
