<?xml version="1.0" encoding="iso-8859-1"?>
<!-- Generator: Adobe Illustrator 19.0.0, SVG Export Plug-In . SVG Version: 6.00 Build 0)  -->
<svg version="1.1" id="Capa_1" xmlns="http://www.w3.org/2000/svg" xmlns:xlink="http://www.w3.org/1999/xlink" x="0px" y="0px"
	 viewBox="0 0 490 490" style="enable-background:new 0 0 490 490;" xml:space="preserve">
<g>
	<path d="M362.477,285.894v-30.102c0-27.414-22.301-49.716-49.714-49.716H189.901v-84.038c0-25.03-20.368-45.399-45.398-45.399
		h-15.104c-25.03,0-45.389,20.369-45.389,45.399v84.819c-23.268,4.137-40.995,24.497-40.995,48.935v30.102H0L66.283,413.36h301.353
		L490,285.894H362.477z M103.613,122.039c0-14.224,11.572-25.796,25.786-25.796h15.104c14.224,0,25.795,11.572,25.795,25.796v84.038
		h-66.685V122.039z M62.618,255.793c0-16.607,13.505-30.113,30.113-30.113h220.032c16.606,0,30.112,13.506,30.112,30.113v30.102
		H62.618V255.793z M359.29,393.757H78.191l-45.897-88.26h411.724L359.29,393.757z"/>
	<rect x="284.229" y="245.991" width="24.647" height="19.603"/>
	<rect x="229.259" y="245.991" width="24.638" height="19.603"/>
	<rect x="174.281" y="245.991" width="24.636" height="19.603"/>
</g>
</svg>
